<svg width="152" height="151" viewBox="0 0 152 151" fill="none" xmlns="http://www.w3.org/2000/svg">
<g clip-path="url(#clip0_1_15278)">
<path fill-rule="evenodd" clip-rule="evenodd" d="M96.9359 44.0307C90.7388 39.89 83.4531 37.6799 76 37.6799V-0.00372314C90.9062 -0.00372314 105.478 4.41649 117.872 12.698C130.266 20.9794 139.926 32.7502 145.63 46.5216C151.334 60.2931 152.827 75.4472 149.919 90.0669C147.011 104.687 139.833 118.116 129.293 128.656C118.752 139.197 105.323 146.374 90.7034 149.283C76.0837 152.191 60.9296 150.698 47.1581 144.994C33.3867 139.289 21.6159 129.629 13.3345 117.235C5.05302 104.841 0.632812 90.2696 0.632812 75.3635H38.3164C38.3164 82.8166 40.5266 90.1023 44.6672 96.2994C48.8079 102.496 54.6933 107.326 61.5793 110.179C68.4648 113.031 76.0419 113.777 83.3517 112.323C90.6616 110.869 97.3761 107.28 102.646 102.01C107.917 96.7395 111.506 90.0251 112.959 82.7152C114.414 75.4053 113.667 67.8283 110.815 60.9427C107.963 54.0568 103.133 48.1714 96.9359 44.0307Z" fill="white"/>
<path fill-rule="evenodd" clip-rule="evenodd" d="M38.3164 -0.00370682C38.3164 4.94498 37.3417 9.8452 35.4479 14.4172C33.5541 18.9892 30.7784 23.1434 27.2791 26.6426C23.7799 30.1419 19.6257 32.9176 15.0537 34.8114C10.4817 36.7052 5.58148 37.6799 0.632814 37.6799L0.632812 75.3635C10.5302 75.3635 20.3306 73.4141 29.4746 69.6266C38.6186 65.839 46.9271 60.2874 53.9253 53.2888C60.9239 46.2906 66.4755 37.9821 70.263 28.8381C74.0506 19.6941 76 9.89363 76 -0.00372314L38.3164 -0.00370682Z" fill="white"/>
</g>
<defs>
<clipPath id="clip0_1_15278">
<rect width="150.734" height="150.734" fill="white" transform="translate(0.632812 -0.00372314)"/>
</clipPath>
</defs>
</svg>
