<svg width="132" height="105" viewBox="0 0 132 105" fill="none" xmlns="http://www.w3.org/2000/svg">
<g clip-path="url(#clip0_1552_241)">
<path d="M125.776 22.8182C121.707 15.72 116.107 10.1595 108.975 6.14383C101.844 2.12816 94.1487 0.119141 85.8913 0.119141C79.2101 0.119141 72.9408 1.44738 67.0763 4.10148C60.8951 1.44976 54.0092 0.119141 46.4113 0.119141C38.111 0.119141 30.3559 2.10912 23.1438 6.08194C15.9316 10.0595 10.2909 15.5558 6.22174 22.5731C2.15255 29.5951 0.119141 37.2408 0.119141 45.5173C0.119141 58.9045 4.50978 69.9803 13.2934 78.7448C22.0747 87.5069 33.3561 91.8891 47.1351 91.8891C54.5187 91.8891 61.3047 90.5942 67.4906 88.0044C73.367 90.5918 79.622 91.8915 86.2532 91.8915C94.5106 91.8915 102.166 89.8634 109.218 85.8049C116.269 81.7488 121.807 76.1716 125.838 69.0686C129.867 61.9704 131.881 54.2628 131.881 45.9434C131.881 37.6241 129.845 29.9189 125.778 22.8182H125.776ZM20.2437 72.9629C12.9506 65.8646 9.30519 57.0192 9.30519 46.429C9.30519 35.8388 13.0315 26.8934 20.4842 19.5929C27.9368 12.2899 36.8205 8.63844 47.1351 8.63844C50.7972 8.63844 54.2663 9.06215 57.545 9.90718C53.0568 13.4634 49.3471 17.8266 46.428 23.0015C42.3969 30.1426 40.3849 37.9311 40.3849 46.3695C40.3849 54.8079 42.4183 62.1918 46.4875 69.2519C49.4804 74.4458 53.2949 78.8114 57.9236 82.3582C54.6663 83.1913 51.2329 83.6126 47.6185 83.6126C36.6586 83.6126 27.5344 80.0635 20.2413 72.9629H20.2437ZM112.118 72.782C104.987 79.8421 96.3464 83.3698 86.1937 83.3698C83.0721 83.3698 80.0911 83.027 77.2505 82.3439C79.291 80.7586 81.1768 78.9804 82.9031 77.0143L82.8864 77.0904L84.5412 78.3377L87.6128 63.9889L87.2413 63.708L74.3718 70.6611L75.8743 71.7941C73.2932 74.4244 70.5217 76.612 67.5644 78.3639C64.9596 76.7905 62.5047 74.8481 60.207 72.532C53.0353 65.31 49.4495 56.486 49.4495 46.0601C49.4495 35.6341 52.933 26.7887 59.9046 19.5262C62.0833 17.2553 64.4286 15.3415 66.943 13.78C70.2074 15.7033 73.2242 18.1646 75.9957 21.1639L74.4599 22.2755L87.2818 29.4166L87.6604 29.1429L84.7817 14.806L83.1221 16.008L83.1388 16.0913C81.1935 13.7134 79.0268 11.5853 76.6338 9.71675C79.5696 8.9955 82.6769 8.63368 85.9532 8.63368C96.1059 8.63368 104.787 12.2447 111.999 19.4667C119.209 26.6887 122.816 35.5317 122.816 46.0006C122.816 56.4694 119.252 65.7171 112.121 72.7772L112.118 72.782Z" fill="#111111"/>
<path d="M86.2531 92.008C79.6576 92.008 73.3455 90.7036 67.4905 88.1328C61.3332 90.7036 54.4829 92.008 47.1374 92.008C33.3893 92.008 21.9746 87.5734 13.21 78.828C4.4454 70.0825 0 58.8758 0 45.5172C0 37.2574 2.0596 29.5188 6.11927 22.5158C10.1789 15.5128 15.8887 9.94752 23.0865 5.97946C30.2844 2.0114 38.1299 0 46.4112 0C53.9615 0 60.9141 1.33538 67.0762 3.97282C72.9145 1.33776 79.2457 0 85.8912 0C94.132 0 101.92 2.03283 109.035 6.03897C116.149 10.0475 121.819 15.6723 125.881 22.7586C129.94 29.8473 132 37.6478 132 45.9433C132 54.2389 129.962 62.0417 125.94 69.128C121.919 76.2143 116.311 81.8605 109.278 85.9071C102.242 89.9561 94.4963 92.008 86.2531 92.008ZM67.4929 87.8733L67.5405 87.8947C73.3788 90.4655 79.6767 91.77 86.2555 91.77C94.4558 91.77 102.163 89.7276 109.161 85.7001C116.159 81.6725 121.735 76.0572 125.735 69.009C129.736 61.9607 131.764 54.1984 131.764 45.9433C131.764 37.6882 129.717 29.9283 125.676 22.8776C121.635 15.8294 115.997 10.2332 108.921 6.24844C101.842 2.26134 94.0939 0.238036 85.8936 0.238036C79.2648 0.238036 72.9502 1.57342 67.1286 4.21085L67.081 4.23228L67.0334 4.21085C60.8855 1.5758 53.9496 0.238036 46.4112 0.238036C38.1728 0.238036 30.363 2.23992 23.2008 6.18655C16.0411 10.1332 10.3623 15.6675 6.32404 22.6348C2.2858 29.6021 0.238104 37.3002 0.238104 45.5172C0.238104 58.8115 4.65969 69.9611 13.3767 78.659C22.0937 87.3592 33.4512 91.77 47.135 91.77C54.471 91.77 61.3022 90.4655 67.4453 87.8947L67.4929 87.8757V87.8733ZM47.6184 83.7315C36.6775 83.7315 27.4391 80.1372 20.1603 73.0484C12.879 65.9597 9.18605 57.0048 9.18605 46.4313C9.18605 35.8577 12.96 26.8005 20.4007 19.5094C27.8415 12.2184 36.8347 8.52168 47.135 8.52168C50.7828 8.52168 54.2948 8.95015 57.5735 9.7928L57.8045 9.8523L57.6164 9.99989C53.1519 13.5371 49.4232 17.9312 46.5279 23.0585C42.5277 30.1449 40.4991 37.9881 40.4991 46.3694C40.4991 54.7506 42.5468 62.1845 46.5874 69.1923C49.5542 74.341 53.3924 78.7375 57.9926 82.2628L58.1878 82.4128L57.9497 82.4747C54.6901 83.3102 51.2114 83.7339 47.6136 83.7339L47.6184 83.7315ZM47.135 8.75734C36.9013 8.75734 27.9605 12.4302 20.5674 19.6784C13.1719 26.9242 9.42415 35.9244 9.42415 46.4313C9.42415 56.9382 13.0933 65.8383 20.3269 72.8794C27.5605 79.9229 36.7418 83.4958 47.6208 83.4958C51.1114 83.4958 54.4877 83.0959 57.6592 82.3057C53.1186 78.7875 49.328 74.4172 46.3874 69.3137C42.3277 62.2702 40.2681 54.5531 40.2681 46.3718C40.2681 38.1905 42.3063 30.0687 46.3279 22.9443C49.197 17.8598 52.8829 13.4943 57.2878 9.96418C54.0948 9.16438 50.6804 8.75734 47.1398 8.75734H47.135ZM86.1936 83.4887C83.0816 83.4887 80.0624 83.1436 77.2242 82.4604L76.9837 82.4033L77.179 82.2509C79.2052 80.6775 81.1005 78.8898 82.8149 76.938L83.1173 76.5928L83.0197 77.0403L84.4626 78.1305L87.4793 64.0388L87.2293 63.8507L74.5908 70.68L76.0527 71.7845L75.9575 71.8821C73.386 74.5029 70.5835 76.719 67.6239 78.4709L67.562 78.5066L67.5001 78.4709C64.8928 76.8975 62.4094 74.9289 60.1188 72.6224C52.9591 65.4123 49.328 56.4788 49.328 46.0671C49.328 35.6554 52.8567 26.7029 59.8164 19.4523C61.9927 17.1862 64.369 15.2462 66.8786 13.6871L66.9405 13.649L67.0024 13.6847C70.2621 15.6056 73.3169 18.0979 76.0813 21.09L76.1718 21.1876L74.6789 22.2683L87.2722 29.2808L87.527 29.0975L84.7007 15.0153L83.253 16.065L83.3459 16.5411L83.0459 16.1722C81.1124 13.8061 78.929 11.6685 76.5599 9.81422L76.367 9.66426L76.6051 9.60475C79.5386 8.8835 82.6839 8.51692 85.9531 8.51692C96.0892 8.51692 104.882 12.1732 112.085 19.3833C119.285 26.5957 122.938 35.553 122.938 46.0004C122.938 56.4478 119.328 65.8122 112.206 72.8604C105.085 79.9086 96.3344 83.4839 86.196 83.4839L86.1936 83.4887ZM77.5195 82.2866C80.2719 82.9269 83.1887 83.2507 86.1936 83.2507C96.2654 83.2507 104.961 79.6992 112.035 72.6962C119.109 65.6931 122.697 56.712 122.697 46.0052C122.697 35.2983 119.069 26.7243 111.914 19.557C104.759 12.3921 96.0225 8.75972 85.9507 8.75972C82.7911 8.75972 79.7457 9.10249 76.898 9.78327C79.1576 11.5733 81.2458 13.6228 83.1078 15.8794L84.8602 14.6106L87.7913 29.2046L87.2912 29.5664L74.2408 22.2968L75.8194 21.1542C73.1122 18.2407 70.1287 15.8103 66.9477 13.9275C64.4761 15.47 62.138 17.3838 59.9926 19.6165C53.0781 26.8219 49.5708 35.722 49.5708 46.0671C49.5708 56.4121 53.1781 65.2932 60.2927 72.4557C62.5523 74.7314 65 76.6737 67.5667 78.2329C70.4502 76.519 73.1836 74.36 75.6956 71.8154L74.1527 70.6514L87.2508 63.5722L87.7436 63.946L84.6173 78.5518L82.872 77.2355C81.2363 79.0827 79.4362 80.7822 77.5171 82.2914L77.5195 82.2866Z" fill="#111111"/>
<path d="M19.5673 103.22C19.0816 103.606 18.5244 103.799 17.8935 103.799C17.3815 103.799 16.9149 103.661 16.4958 103.385C16.0767 103.109 15.7482 102.742 15.51 102.28C15.2719 101.821 15.1529 101.319 15.1529 100.773C15.1529 100.228 15.2672 99.7546 15.4958 99.2952C15.7243 98.8358 16.0434 98.4716 16.4506 98.1979C16.8577 97.9241 17.322 97.7861 17.8411 97.7861C18.3601 97.7861 18.8721 97.9265 19.3221 98.2098C19.7721 98.493 20.1269 98.8858 20.384 99.3928H21.4103V96.8672H20.4055V97.7361C20.0388 97.4123 19.6388 97.1648 19.2078 96.9934C18.7768 96.822 18.303 96.7363 17.7911 96.7363C17.0268 96.7363 16.3482 96.9077 15.7553 97.2505C15.1624 97.5933 14.6981 98.0788 14.36 98.7025C14.0243 99.3262 13.8552 100.038 13.8552 100.835C13.8552 101.571 14.0195 102.247 14.3505 102.861C14.6791 103.477 15.141 103.965 15.7339 104.33C16.3267 104.694 17.0053 104.877 17.7697 104.877C18.6983 104.877 19.5054 104.637 20.1935 104.154C20.8817 103.67 21.3626 102.99 21.6341 102.111L20.6293 101.578C20.4055 102.285 20.0531 102.832 19.5673 103.218V103.22Z" fill="#111111"/>
<path d="M17.7674 105C16.984 105 16.2792 104.81 15.6697 104.436C15.0625 104.062 14.5815 103.553 14.2434 102.922C13.9053 102.291 13.7339 101.591 13.7339 100.839C13.7339 100.025 13.9077 99.2871 14.253 98.6492C14.5982 98.0088 15.0839 97.5042 15.6911 97.1519C16.3006 96.7996 17.0054 96.6211 17.7864 96.6211C18.3126 96.6211 18.8031 96.7092 19.2484 96.8853C19.6151 97.0305 19.9627 97.2305 20.2841 97.4852V96.752H21.527V99.5156H20.3103L20.277 99.4513C20.0294 98.9681 19.6865 98.5849 19.2579 98.3159C18.8293 98.0469 18.3531 97.9112 17.8412 97.9112C17.3293 97.9112 16.903 98.0422 16.5149 98.3016C16.1268 98.5635 15.8173 98.9158 15.6006 99.3537C15.3816 99.7941 15.2697 100.273 15.2697 100.777C15.2697 101.282 15.3863 101.786 15.6149 102.229C15.8435 102.67 16.1625 103.024 16.5602 103.288C16.9578 103.55 17.4054 103.681 17.8912 103.681C18.4912 103.681 19.0293 103.496 19.4912 103.129C19.9555 102.76 20.2984 102.229 20.5127 101.546L20.5556 101.41L21.7747 102.058L21.7461 102.153C21.4675 103.053 20.9675 103.762 20.2603 104.257C19.5531 104.752 18.715 105.002 17.7674 105.002V105ZM17.7888 96.8567C17.0507 96.8567 16.384 97.0258 15.8125 97.3566C15.2411 97.6875 14.7887 98.1612 14.4625 98.761C14.1363 99.3656 13.972 100.063 13.972 100.839C13.972 101.551 14.1339 102.215 14.453 102.81C14.772 103.405 15.222 103.884 15.7935 104.233C16.3649 104.583 17.0292 104.762 17.7674 104.762C18.665 104.762 19.4579 104.526 20.1246 104.06C20.7627 103.612 21.2223 102.977 21.4913 102.172L20.6984 101.751C20.4675 102.415 20.1127 102.939 19.6412 103.312C19.1365 103.712 18.5483 103.917 17.8936 103.917C17.3602 103.917 16.8673 103.772 16.4316 103.484C15.9983 103.198 15.653 102.812 15.4054 102.336C15.1577 101.86 15.0339 101.337 15.0339 100.775C15.0339 100.213 15.153 99.7179 15.3887 99.2442C15.6244 98.7682 15.9602 98.3849 16.384 98.0993C16.8102 97.8137 17.3007 97.6685 17.8412 97.6685C18.3817 97.6685 18.9174 97.816 19.3841 98.1112C19.8317 98.3921 20.1913 98.7825 20.4556 99.2752H21.2889V96.9877H20.5222V98.0017L20.3246 97.8256C19.9698 97.5113 19.5793 97.2686 19.1627 97.1043C18.746 96.9401 18.2841 96.8567 17.7888 96.8567Z" fill="#111111"/>
<path d="M28.8748 97.2691C28.2509 96.9144 27.5343 96.7383 26.7247 96.7383C25.9152 96.7383 25.2532 96.9097 24.6413 97.2524C24.0317 97.5952 23.5532 98.0737 23.2055 98.683C22.8579 99.2924 22.6841 99.9875 22.6841 100.766C22.6841 101.544 22.8531 102.256 23.1936 102.882C23.5341 103.508 24.0079 103.998 24.6199 104.351C25.2294 104.705 25.9271 104.881 26.7128 104.881C27.4985 104.881 28.2176 104.712 28.8414 104.372C29.4653 104.032 29.9558 103.551 30.3082 102.925C30.6629 102.301 30.8391 101.587 30.8391 100.785C30.8391 99.9827 30.6677 99.3329 30.3248 98.7187C29.982 98.1046 29.4962 97.6214 28.8724 97.2667L28.8748 97.2691ZM29.1962 102.282C28.9653 102.749 28.6367 103.125 28.2105 103.406C27.7843 103.687 27.3009 103.829 26.7604 103.829C26.2199 103.829 25.7128 103.701 25.2913 103.441C24.8699 103.182 24.5461 102.822 24.3199 102.358C24.096 101.894 23.9817 101.366 23.9817 100.773C23.9817 100.216 24.0937 99.7066 24.3199 99.2519C24.5461 98.7949 24.8627 98.4379 25.2747 98.176C25.6866 97.9142 26.158 97.7856 26.6938 97.7856C27.2295 97.7856 27.7271 97.9189 28.1581 98.1855C28.5914 98.4521 28.9295 98.8163 29.1748 99.2781C29.42 99.7399 29.5439 100.242 29.5439 100.783C29.5439 101.323 29.4272 101.811 29.1962 102.277V102.282Z" fill="#111111"/>
<path d="M26.7152 105.001C25.9127 105.001 25.1889 104.818 24.5627 104.453C23.9365 104.089 23.4412 103.58 23.0912 102.937C22.7436 102.297 22.5674 101.566 22.5674 100.764C22.5674 99.9616 22.7483 99.2475 23.1031 98.6238C23.4603 97.9978 23.9579 97.5003 24.5841 97.148C25.2103 96.7957 25.9294 96.6172 26.7247 96.6172C27.5199 96.6172 28.2938 96.8005 28.9343 97.1647C29.5748 97.5289 30.0796 98.0311 30.432 98.6619C30.7843 99.2903 30.9629 100.004 30.9629 100.785C30.9629 101.604 30.7796 102.344 30.4177 102.982C30.0534 103.623 29.5438 104.125 28.9033 104.475C28.2628 104.822 27.5271 104.998 26.7175 104.998L26.7152 105.001ZM26.7247 96.8576C25.9723 96.8576 25.2913 97.0266 24.7008 97.3575C24.1127 97.6883 23.6436 98.1549 23.3103 98.7428C22.9745 99.3308 22.8055 100.012 22.8055 100.766C22.8055 101.521 22.9722 102.221 23.3007 102.825C23.6293 103.43 24.0936 103.908 24.6817 104.249C25.2722 104.591 25.9556 104.763 26.7152 104.763C27.4747 104.763 28.1843 104.596 28.7867 104.268C29.3891 103.939 29.8653 103.468 30.2081 102.868C30.551 102.266 30.7224 101.566 30.7224 100.788C30.7224 100.009 30.5534 99.3713 30.2224 98.7786C29.8915 98.1882 29.4176 97.7145 28.8152 97.3718C28.2128 97.029 27.508 96.8552 26.7247 96.8552V96.8576ZM26.7604 103.949C26.1818 103.949 25.6675 103.813 25.2294 103.544C24.7889 103.275 24.4484 102.894 24.2127 102.411C23.9817 101.933 23.8627 101.383 23.8627 100.773C23.8627 100.2 23.9793 99.6712 24.2127 99.1999C24.446 98.7262 24.7817 98.3477 25.2103 98.0763C25.6389 97.805 26.1389 97.6693 26.6913 97.6693C27.2437 97.6693 27.77 97.8097 28.22 98.0882C28.6676 98.3644 29.0248 98.7476 29.2795 99.2261C29.5343 99.7021 29.6629 100.228 29.6629 100.785C29.6629 101.342 29.5414 101.852 29.3033 102.335C29.0629 102.818 28.7176 103.213 28.2771 103.506C27.8342 103.801 27.3247 103.949 26.7628 103.949H26.7604ZM26.6937 97.9073C26.1866 97.9073 25.7294 98.0311 25.3389 98.2787C24.9484 98.5262 24.6413 98.8714 24.427 99.3046C24.2103 99.7426 24.1008 100.238 24.1008 100.773C24.1008 101.345 24.2103 101.861 24.427 102.306C24.6413 102.747 24.9532 103.094 25.3532 103.339C25.7532 103.584 26.227 103.708 26.7604 103.708C27.2937 103.708 27.7414 103.573 28.1438 103.304C28.5509 103.035 28.8676 102.67 29.089 102.225C29.3105 101.778 29.4248 101.292 29.4248 100.783C29.4248 100.273 29.3057 99.7783 29.07 99.3356C28.8343 98.8952 28.5081 98.5429 28.0962 98.2882C27.6842 98.0335 27.2128 97.905 26.6937 97.905V97.9073Z" fill="#111111"/>
<path d="M36.4872 102.266L34.4109 96.8672H31.7061V97.8527H32.6632V103.768H31.7061V104.751H34.5038V103.768H33.6371V97.8527L36.3253 104.834H36.561L39.2706 97.8527V103.768H38.3396V104.751H41.3064V103.768H40.354V97.8527H41.3064V96.8672H38.5753L36.4872 102.266Z" fill="#111111"/>
<path d="M36.6419 104.953H36.2443L33.7561 98.4924V103.648H34.6252V104.869H31.5894V103.648H32.5465V97.9711H31.5894V96.75H34.4942L36.4895 101.937L38.4944 96.75H41.4254V97.9711H40.473V103.648H41.4254V104.869H38.2205V103.648H39.1515V98.4877L36.6419 104.953ZM36.4062 104.715H36.4776L39.3873 97.2165V103.886H38.4563V104.631H41.1849V103.886H40.2325V97.7331H41.1849V96.988H38.6539L36.4848 102.599L34.3275 96.988H31.8227V97.7331H32.7799V103.886H31.8227V104.631H34.3823V103.886H33.5132V97.2118L36.4038 104.715H36.4062Z" fill="#111111"/>
<path d="M46.6661 97.1243C46.1994 96.9529 45.5708 96.8672 44.7803 96.8672H41.8445V97.8503H42.8278V103.765H41.8445V104.749H45.047V103.765H44.0208V101.726H45.0565C46.1137 101.718 46.8637 101.492 47.3066 101.045C47.7495 100.597 47.9709 100.016 47.9709 99.2975C47.9709 98.7191 47.8709 98.2549 47.6685 97.9026C47.4661 97.5527 47.1328 97.2909 46.6661 97.1195V97.1243ZM46.5589 100.181C46.4232 100.4 46.2113 100.552 45.9208 100.64C45.6303 100.728 45.2446 100.773 44.7589 100.773H44.0208V97.8503H44.8422C45.5422 97.8503 46.0375 97.9645 46.328 98.193C46.6185 98.4216 46.7613 98.781 46.7613 99.2737C46.7613 99.6617 46.6923 99.964 46.5566 100.181H46.5589Z" fill="#111111"/>
<path d="M45.1659 104.869H41.7253V103.648H42.7087V97.9711H41.7253V96.75H44.7802C45.5826 96.75 46.2303 96.8381 46.7065 97.0142C47.197 97.1951 47.5541 97.4736 47.7708 97.8473C47.9827 98.2139 48.0899 98.7043 48.0899 99.3017C48.0899 100.049 47.8541 100.666 47.3898 101.132C46.9255 101.599 46.1398 101.839 45.0564 101.846H44.1397V103.648H45.1659V104.869ZM41.9634 104.631H44.9278V103.886H43.9016V101.608H45.0564C46.0755 101.601 46.8041 101.385 47.2208 100.963C47.6375 100.542 47.8518 99.9825 47.8518 99.2994C47.8518 98.7447 47.7541 98.2948 47.5636 97.964C47.3755 97.6402 47.0612 97.3951 46.6231 97.2332C46.1731 97.069 45.5517 96.9833 44.7778 96.9833H41.9611V97.7283H42.9444V103.882H41.9611V104.627L41.9634 104.631ZM44.7588 100.894H43.9016V97.7331H44.8421C45.5779 97.7331 46.0874 97.8545 46.4017 98.102C46.7208 98.3544 46.8803 98.7471 46.8803 99.2756C46.8803 99.6826 46.8065 100.009 46.6589 100.247C46.5088 100.49 46.2707 100.661 45.9541 100.759C45.6541 100.851 45.2517 100.897 44.7588 100.897V100.894ZM44.1397 100.656H44.7588C45.2302 100.656 45.6088 100.613 45.885 100.528C46.1493 100.447 46.335 100.313 46.4565 100.118C46.5803 99.9206 46.6422 99.6374 46.6422 99.2732C46.6422 98.8161 46.516 98.4924 46.2541 98.2853C45.9874 98.0759 45.5112 97.9687 44.8421 97.9687H44.1397V100.654V100.656Z" fill="#111111"/>
<path d="M53.2351 103.768H50.6445V97.8527H51.6588V96.8672H48.4373V97.8527H49.4516V103.768H48.4373V104.751H54.2113V101.326H53.2351V103.768Z" fill="#111111"/>
<path d="M54.3304 104.869H48.3159V103.648H49.3302V97.9711H48.3159V96.75H51.7779V97.9711H50.7636V103.648H53.1161V101.206H54.3328V104.869H54.3304ZM48.5564 104.631H54.0947V101.444H53.3542V103.886H50.5255V97.7331H51.5398V96.988H48.554V97.7331H49.5683V103.886H48.554V104.631H48.5564Z" fill="#111111"/>
<path d="M54.9092 97.8527H55.7616V103.768H54.9092V104.751H57.8117V103.768H56.9545V97.8527H57.8117V96.8672H54.9092V97.8527Z" fill="#111111"/>
<path d="M57.9306 104.869H54.79V103.648H55.6425V97.9711H54.79V96.75H57.9306V97.9711H57.0735V103.648H57.9306V104.869ZM55.0281 104.631H57.6925V103.886H56.8354V97.7331H57.6925V96.988H55.0281V97.7331H55.8806V103.886H55.0281V104.631Z" fill="#111111"/>
<path d="M63.6142 97.8193H64.5619V96.8672H60.4641V97.8193H61.4118L59.2879 103.765H58.3354V104.749H61.4641V103.765H60.4641L61.076 101.978H63.938L64.55 103.765H63.519V104.749H66.6262V103.765H65.7476L63.6142 97.8193ZM61.3856 101.052L62.4999 97.8193H62.5356L63.6237 101.052H61.3856Z" fill="#111111"/>
<path d="M66.7476 104.869H63.4023V103.648H64.3856L63.8547 102.099H61.1641L60.6331 103.648H61.5855V104.869H58.2188V103.648H59.2069L61.2451 97.9402H60.3474V96.75H64.6833V97.9402H63.7856L65.8357 103.648H66.75V104.869H66.7476ZM63.638 104.631H66.5071V103.886H65.6643L63.4451 97.7021H64.4428V96.988H60.5831V97.7021H61.5808L59.3712 103.886H58.4545V104.631H61.3451V103.886H60.2974L60.9903 101.861H64.0213L64.7142 103.886H63.6356V104.631H63.638ZM63.7904 101.17H61.2189L62.4141 97.6998H62.6213L63.7904 101.17ZM61.5522 100.932H63.4594L62.5165 98.1354L61.5522 100.932Z" fill="#111111"/>
<path d="M72.0646 97.8527H73.1885V102.992L69.7241 96.8672H67.0359V97.8527H68.1597V103.768H67.0359V104.751H70.2646V103.768H69.1336V98.0978L72.917 104.834H74.1409V97.8527H75.2957V96.8672H72.0646V97.8527Z" fill="#111111"/>
<path d="M74.2599 104.953H72.8455L69.2525 98.5519V103.648H70.3835V104.869H66.9167V103.648H68.0406V97.9711H66.9167V96.75H69.7954L73.0693 102.541V97.9711H71.9455V96.75H75.4171V97.9711H74.2599V104.953ZM72.986 104.715H74.0218V97.7331H75.1789V96.988H72.1836V97.7331H73.3075V103.446L69.6549 96.988H67.1549V97.7331H68.2787V103.886H67.1549V104.631H70.1454V103.886H69.0144V97.6426L72.986 104.715Z" fill="#111111"/>
<path d="M81.779 103.22C81.2933 103.606 80.7361 103.799 80.1051 103.799C79.5932 103.799 79.1265 103.661 78.7075 103.385C78.2884 103.109 77.9598 102.742 77.7217 102.28C77.4836 101.821 77.3646 101.319 77.3646 100.773C77.3646 100.228 77.4788 99.7546 77.7074 99.2952C77.936 98.8358 78.2551 98.4716 78.6622 98.1979C79.0694 97.9241 79.5337 97.7861 80.0528 97.7861C80.5718 97.7861 81.0837 97.9265 81.5338 98.2098C81.9838 98.493 82.3386 98.8858 82.5957 99.3928H83.6219V96.8672H82.6171V97.7361C82.2505 97.4123 81.8504 97.1648 81.4195 96.9934C80.9885 96.822 80.5147 96.7363 80.0028 96.7363C79.2384 96.7363 78.5598 96.9077 77.967 97.2505C77.3741 97.5933 76.9098 98.0788 76.5717 98.7025C76.2359 99.3262 76.0669 100.038 76.0669 100.835C76.0669 101.571 76.2312 102.247 76.5621 102.861C76.8907 103.477 77.3527 103.965 77.9455 104.33C78.5384 104.694 79.217 104.877 79.9813 104.877C80.9099 104.877 81.7171 104.637 82.4052 104.154C83.0933 103.67 83.5743 102.99 83.8458 102.111L82.841 101.578C82.6171 102.285 82.2647 102.832 81.779 103.218V103.22Z" fill="#111111"/>
<path d="M79.979 105C79.1957 105 78.4909 104.81 77.8813 104.436C77.2742 104.062 76.7932 103.553 76.4551 102.922C76.117 102.291 75.9456 101.591 75.9456 100.839C75.9456 100.025 76.1194 99.2871 76.4646 98.6492C76.8099 98.0088 77.2956 97.5042 77.9028 97.1519C78.5123 96.7996 79.2171 96.6211 79.9981 96.6211C80.5243 96.6211 81.0148 96.7092 81.46 96.8853C81.8267 97.0305 82.1744 97.2305 82.4958 97.4852V96.752H83.7387V99.5156H82.522L82.4887 99.4513C82.241 98.9681 81.8982 98.5849 81.4696 98.3159C81.041 98.0469 80.5648 97.9112 80.0528 97.9112C79.5409 97.9112 79.1147 98.0422 78.7266 98.3016C78.3385 98.5635 78.029 98.9158 77.8123 99.3537C77.5932 99.7941 77.4813 100.273 77.4813 100.777C77.4813 101.282 77.598 101.786 77.8266 102.229C78.0552 102.67 78.3742 103.024 78.7718 103.288C79.1695 103.55 79.6171 103.681 80.1029 103.681C80.7029 103.681 81.241 103.496 81.7029 103.129C82.1672 102.76 82.5101 102.229 82.7244 101.546L82.7672 101.41L83.9863 102.058L83.9577 102.153C83.6792 103.053 83.1792 103.762 82.472 104.257C81.7648 104.752 80.9267 105.002 79.979 105.002V105ZM80.0005 96.8567C79.2623 96.8567 78.5957 97.0258 78.0242 97.3566C77.4528 97.6875 77.0004 98.1612 76.6742 98.761C76.348 99.3656 76.1837 100.063 76.1837 100.839C76.1837 101.551 76.3456 102.215 76.6646 102.81C76.9837 103.405 77.4337 103.884 78.0052 104.233C78.5766 104.583 79.2409 104.762 79.979 104.762C80.8767 104.762 81.6696 104.526 82.3363 104.06C82.9744 103.612 83.4339 102.977 83.703 102.172L82.9101 101.751C82.6791 102.415 82.3244 102.939 81.8529 103.312C81.3481 103.712 80.76 103.917 80.1052 103.917C79.5719 103.917 79.079 103.772 78.6433 103.484C78.2099 103.198 77.8647 102.812 77.6171 102.336C77.3694 101.86 77.2456 101.337 77.2456 100.775C77.2456 100.213 77.3647 99.7179 77.6004 99.2442C77.8361 98.7682 78.1718 98.3849 78.5957 98.0993C79.0219 97.8137 79.5124 97.6685 80.0528 97.6685C80.5933 97.6685 81.1291 97.816 81.5958 98.1112C82.0434 98.3921 82.4029 98.7825 82.6672 99.2752H83.5006V96.9877H82.7339V98.0017L82.5363 97.8256C82.1815 97.5113 81.791 97.2686 81.3743 97.1043C80.9576 96.9401 80.4957 96.8567 80.0005 96.8567Z" fill="#111111"/>
<path d="M84.5364 97.8527H85.5507V103.768H84.5364V104.751H91.0914V102.328H90.1175V103.768H86.7436V101.183H89.6794V100.2H86.7436V97.8527H90.1175V99.169H91.0914V96.8672H84.5364V97.8527Z" fill="#111111"/>
<path d="M91.2103 104.869H84.4172V103.648H85.4316V97.9711H84.4172V96.75H91.2103V99.2898H89.9984V97.9711H86.8626V100.083H89.7984V101.304H86.8626V103.648H89.9984V102.211H91.2103V104.869ZM84.6553 104.631H90.9722V102.449H90.2365V103.886H86.6245V101.066H89.5603V100.321H86.6245V97.7331H90.2365V99.0518H90.9722V96.988H84.6553V97.7331H85.6697V103.886H84.6553V104.631Z" fill="#111111"/>
<path d="M101.104 97.2691C100.48 96.9144 99.7633 96.7383 98.9537 96.7383C98.1442 96.7383 97.4822 96.9097 96.8703 97.2524C96.2608 97.5952 95.7822 98.0737 95.4345 98.683C95.0869 99.2924 94.9131 99.9875 94.9131 100.766C94.9131 101.544 95.0821 102.256 95.4226 102.882C95.7631 103.508 96.2369 103.998 96.8489 104.351C97.4584 104.705 98.1561 104.881 98.9418 104.881C99.7275 104.881 100.447 104.712 101.07 104.372C101.694 104.032 102.185 103.551 102.537 102.925C102.892 102.301 103.068 101.587 103.068 100.785C103.068 99.9827 102.897 99.3329 102.554 98.7187C102.211 98.1046 101.725 97.6214 101.101 97.2667L101.104 97.2691ZM101.428 102.282C101.197 102.749 100.868 103.125 100.442 103.406C100.016 103.687 99.5323 103.829 98.9918 103.829C98.4513 103.829 97.9441 103.701 97.5227 103.441C97.1013 103.182 96.7774 102.822 96.5512 102.358C96.3274 101.894 96.2131 101.366 96.2131 100.773C96.2131 100.216 96.325 99.7066 96.5512 99.2519C96.7774 98.7949 97.0941 98.4379 97.506 98.176C97.918 97.9142 98.3894 97.7856 98.9251 97.7856C99.4609 97.7856 99.9585 97.9189 100.389 98.1855C100.823 98.4521 101.161 98.8163 101.406 99.2781C101.651 99.7399 101.775 100.242 101.775 100.783C101.775 101.323 101.659 101.811 101.428 102.277V102.282Z" fill="#111111"/>
<path d="M98.9442 105.001C98.1417 105.001 97.4179 104.818 96.7917 104.453C96.1655 104.089 95.6702 103.58 95.3202 102.937C94.9726 102.297 94.7964 101.566 94.7964 100.764C94.7964 99.9616 94.9773 99.2475 95.3321 98.6238C95.6893 97.9978 96.1869 97.5003 96.8131 97.148C97.4393 96.7957 98.1584 96.6172 98.9537 96.6172C99.7489 96.6172 100.523 96.8005 101.163 97.1647C101.804 97.5289 102.309 98.0311 102.661 98.6619C103.013 99.2903 103.192 100.004 103.192 100.785C103.192 101.604 103.009 102.344 102.647 102.982C102.282 103.623 101.773 104.125 101.132 104.475C100.492 104.822 99.7561 104.998 98.9465 104.998L98.9442 105.001ZM98.9537 96.8576C98.2013 96.8576 97.5203 97.0266 96.9298 97.3575C96.3417 97.6883 95.8726 98.1549 95.5393 98.7428C95.2035 99.3308 95.0345 100.012 95.0345 100.766C95.0345 101.521 95.2012 102.221 95.5297 102.825C95.8583 103.43 96.3226 103.908 96.9107 104.249C97.5012 104.591 98.1846 104.763 98.9442 104.763C99.7037 104.763 100.413 104.596 101.016 104.268C101.618 103.939 102.094 103.468 102.437 102.868C102.78 102.266 102.951 101.566 102.951 100.788C102.951 100.009 102.782 99.3713 102.451 98.7786C102.12 98.1882 101.647 97.7145 101.044 97.3718C100.442 97.029 99.737 96.8552 98.9537 96.8552V96.8576ZM98.9918 103.949C98.4132 103.949 97.8989 103.813 97.4608 103.544C97.0203 103.275 96.6798 102.894 96.4441 102.411C96.2131 101.933 96.094 101.383 96.094 100.773C96.094 100.2 96.2107 99.6712 96.4441 99.1999C96.6774 98.7262 97.0131 98.3477 97.4417 98.0763C97.8703 97.805 98.3703 97.6693 98.9227 97.6693C99.4751 97.6693 100.001 97.8097 100.451 98.0882C100.899 98.3644 101.256 98.7476 101.511 99.2261C101.766 99.7021 101.894 100.228 101.894 100.785C101.894 101.342 101.773 101.852 101.535 102.335C101.294 102.818 100.949 103.213 100.508 103.506C100.066 103.801 99.5561 103.949 98.9942 103.949H98.9918ZM98.9227 97.9073C98.4156 97.9073 97.9584 98.0311 97.5679 98.2787C97.1774 98.5262 96.8703 98.8714 96.656 99.3046C96.4393 99.7426 96.3298 100.238 96.3298 100.773C96.3298 101.345 96.4393 101.861 96.656 102.306C96.8703 102.747 97.1822 103.094 97.5822 103.339C97.9822 103.584 98.456 103.708 98.9894 103.708C99.5227 103.708 99.9704 103.573 100.373 103.304C100.78 103.035 101.097 102.67 101.318 102.225C101.539 101.778 101.654 101.292 101.654 100.783C101.654 100.273 101.535 99.7783 101.299 99.3356C101.063 98.8952 100.737 98.5429 100.325 98.2882C99.9132 98.0335 99.4418 97.905 98.9227 97.905V97.9073Z" fill="#111111"/>
<path d="M108.868 97.8527H109.995V102.992L106.53 96.8672H103.842V97.8527H104.966V103.768H103.842V104.751H107.068V103.768H105.94V98.0978L109.721 104.834H110.947V97.8527H112.102V96.8672H108.868V97.8527Z" fill="#111111"/>
<path d="M111.066 104.953H109.652L106.059 98.5519V103.648H107.19V104.869H103.723V103.648H104.847V97.9711H103.723V96.75H106.602L109.876 102.541V97.9711H108.752V96.75H112.223V97.9711H111.066V104.953ZM109.792 104.715H110.828V97.7331H111.985V96.988H108.99V97.7331H110.114V103.446L106.461 96.988H103.961V97.7331H105.085V103.886H103.961V104.631H106.952V103.886H105.821V97.6426L109.792 104.715Z" fill="#111111"/>
<path d="M112.511 97.8527H113.526V103.768H112.511V104.751H119.066V102.328H118.092V103.768H114.718V101.183H117.652V100.2H114.718V97.8527H118.092V99.169H119.066V96.8672H112.511V97.8527Z" fill="#111111"/>
<path d="M119.185 104.869H112.392V103.648H113.406V97.9711H112.392V96.75H119.185V99.2898H117.973V97.9711H114.837V100.083H117.773V101.304H114.837V103.648H117.973V102.211H119.185V104.869ZM112.63 104.631H118.947V102.449H118.211V103.886H114.599V101.066H117.535V100.321H114.599V97.7331H118.211V99.0518H118.947V96.988H112.63V97.7331H113.645V103.886H112.63V104.631Z" fill="#111111"/>
</g>
<defs>
<clipPath id="clip0_1552_241">
<rect width="132" height="105" fill="white"/>
</clipPath>
</defs>
</svg>
