<svg width="223" height="156" viewBox="0 0 223 156" fill="none" xmlns="http://www.w3.org/2000/svg">
<g clip-path="url(#clip0_1943_64942)">
<path d="M212.167 38.4155C205.324 26.4764 195.907 17.1237 183.916 10.3694C171.925 3.61511 158.985 0.235962 145.1 0.235962C133.866 0.235962 123.324 2.47004 113.463 6.9342C103.069 2.47405 91.4902 0.235962 78.7143 0.235962C64.7573 0.235962 51.7171 3.58308 39.5898 10.2653C27.4625 16.9555 17.9777 26.2002 11.1353 38.0031C4.29296 49.8141 0.873779 62.6741 0.873779 76.5951C0.873779 99.1121 8.25666 117.741 23.0264 132.483C37.7922 147.221 56.7618 154.592 79.9314 154.592C92.347 154.592 103.758 152.414 114.159 148.058C124.041 152.41 134.558 154.596 145.709 154.596C159.594 154.596 172.466 151.185 184.325 144.358C196.18 137.536 205.492 128.155 212.271 116.208C219.045 104.269 222.432 91.3048 222.432 77.3118C222.432 63.3187 219.009 50.3587 212.171 38.4155H212.167ZM34.7133 122.758C22.4499 110.819 16.3202 95.9411 16.3202 78.1285C16.3202 60.3159 22.586 45.2699 35.1177 32.9905C47.6494 20.707 62.5873 14.5653 79.9314 14.5653C86.0892 14.5653 91.9226 15.278 97.4357 16.6993C89.8887 22.6809 83.6509 30.0197 78.7423 38.7238C71.964 50.735 68.5809 63.8352 68.5809 78.0284C68.5809 92.2217 72 104.641 78.8424 116.516C83.8751 125.252 90.2891 132.595 98.0723 138.561C92.5952 139.962 86.8218 140.671 80.7442 140.671C62.315 140.671 46.9727 134.701 34.7093 122.758H34.7133ZM189.201 122.454C177.21 134.329 162.681 140.262 145.609 140.262C140.36 140.262 135.347 139.686 130.571 138.537C134.002 135.87 137.173 132.88 140.075 129.572L140.047 129.701L142.83 131.799L147.995 107.664L147.37 107.192L125.73 118.886L128.256 120.792C123.916 125.216 119.256 128.896 114.283 131.843C109.903 129.196 105.776 125.929 101.912 122.033C89.8527 109.886 83.8231 95.0443 83.8231 77.5079C83.8231 59.9716 89.6805 45.0938 101.403 32.8784C105.067 29.0588 109.011 25.8398 113.238 23.2134C118.728 26.4484 123.8 30.5882 128.461 35.6329L125.878 37.5027L147.438 49.5139L148.075 49.0534L143.234 24.939L140.444 26.9609L140.472 27.101C137.201 23.1013 133.557 19.5219 129.534 16.379C134.47 15.1659 139.695 14.5573 145.204 14.5573C162.276 14.5573 176.874 20.631 189.001 32.7783C201.124 44.9256 207.19 59.7994 207.19 77.4079C207.19 95.0163 201.196 110.571 189.205 122.446L189.201 122.454Z" fill="white"/>
<path d="M145.709 154.792C134.618 154.792 124.004 152.598 114.159 148.274C103.806 152.598 92.2869 154.792 79.9354 154.792C56.8179 154.792 37.624 147.333 22.8863 132.623C8.14855 117.914 0.673584 99.0641 0.673584 76.5952C0.673584 62.7023 4.13681 49.6861 10.9632 37.9072C17.7895 26.1282 27.3905 16.7675 39.4937 10.0933C51.597 3.41904 64.7893 0.0358887 78.7143 0.0358887C91.4101 0.0358887 103.101 2.28198 113.463 6.71811C123.28 2.28599 133.926 0.0358887 145.1 0.0358887C158.957 0.0358887 172.053 3.45507 184.016 10.1934C195.98 16.9356 205.512 26.3964 212.343 38.3155C219.169 50.2387 222.632 63.3589 222.632 77.3119C222.632 91.2649 219.205 104.389 212.443 116.308C205.681 128.227 196.252 137.724 184.425 144.531C172.594 151.341 159.57 154.792 145.709 154.792ZM114.163 147.838L114.243 147.874C124.061 152.198 134.65 154.392 145.713 154.392C159.502 154.392 172.462 150.956 184.229 144.182C195.996 137.408 205.372 127.963 212.099 116.108C218.825 104.253 222.236 91.1968 222.236 77.3119C222.236 63.4269 218.793 50.3748 211.998 38.5157C205.204 26.6607 195.723 17.2479 183.824 10.5457C171.921 3.83943 158.893 0.436262 145.104 0.436262C133.958 0.436262 123.34 2.68235 113.551 7.11849L113.471 7.15452L113.391 7.11849C103.053 2.68636 91.3901 0.436262 78.7143 0.436262C64.8614 0.436262 51.7291 3.8034 39.6859 10.4416C27.6467 17.0798 18.0978 26.3884 11.3075 38.1074C4.51716 49.8263 1.07396 62.7743 1.07396 76.5952C1.07396 98.956 8.50888 117.71 23.1665 132.339C37.8242 146.973 56.922 154.392 79.9314 154.392C92.2669 154.392 103.754 152.198 114.083 147.874L114.163 147.842V147.838ZM80.7442 140.871C62.347 140.871 46.8126 134.825 34.5732 122.902C22.3298 110.979 16.12 95.9172 16.12 78.1326C16.12 60.3481 22.4659 45.1139 34.9775 32.8505C47.4892 20.587 62.6113 14.3692 79.9314 14.3692C86.0651 14.3692 91.9706 15.0899 97.4838 16.5072L97.8721 16.6073L97.5558 16.8556C90.0488 22.8051 83.779 30.196 78.9105 38.82C72.1842 50.7391 68.773 63.9314 68.773 78.0285C68.773 92.1257 72.2162 104.629 79.0106 116.416C83.9992 125.076 90.4532 132.471 98.1884 138.401L98.5167 138.653L98.1164 138.757C92.6353 140.162 86.7858 140.875 80.7362 140.875L80.7442 140.871ZM79.9314 14.7656C62.7234 14.7656 47.6894 20.9434 35.2578 33.1347C22.8222 45.3221 16.5203 60.4602 16.5203 78.1326C16.5203 95.8051 22.6901 110.775 34.8534 122.618C47.0168 134.465 62.4551 140.475 80.7482 140.475C86.6176 140.475 92.2949 139.802 97.6279 138.473C89.9928 132.555 83.6189 125.204 78.6742 116.62C71.8479 104.773 68.3847 91.7934 68.3847 78.0325C68.3847 64.2717 71.8119 50.611 78.5742 38.6278C83.3987 30.0759 89.5964 22.733 97.0033 16.7955C91.6343 15.4502 85.893 14.7656 79.9394 14.7656H79.9314ZM145.609 140.463C140.376 140.463 135.299 139.882 130.527 138.733L130.122 138.637L130.45 138.381C133.858 135.734 137.045 132.728 139.927 129.444L140.436 128.864L140.272 129.617L142.698 131.45L147.771 107.748L147.35 107.432L126.098 118.919L128.557 120.776L128.397 120.941C124.073 125.349 119.36 129.076 114.384 132.023L114.279 132.083L114.175 132.023C109.791 129.376 105.615 126.065 101.764 122.186C89.7245 110.058 83.6189 95.0324 83.6189 77.5201C83.6189 60.0078 89.5524 44.9497 101.255 32.7544C104.915 28.9428 108.91 25.6798 113.13 23.0573L113.234 22.9933L113.339 23.0533C118.82 26.2843 123.956 30.4762 128.605 35.5089L128.757 35.6731L126.247 37.4908L147.422 49.2858L147.851 48.9775L143.098 25.2914L140.664 27.0571L140.82 27.8578L140.316 27.2372C137.065 23.2575 133.393 19.6622 129.41 16.5433L129.085 16.291L129.486 16.1909C134.418 14.9778 139.707 14.3612 145.204 14.3612C162.248 14.3612 177.034 20.511 189.145 32.6383C201.252 44.7696 207.394 59.8356 207.394 77.408C207.394 94.9803 201.325 110.731 189.349 122.586C177.374 134.441 162.66 140.455 145.613 140.455L145.609 140.463ZM131.023 138.441C135.651 139.518 140.556 140.062 145.609 140.062C162.544 140.062 177.166 134.089 189.061 122.31C200.956 110.531 206.99 95.4248 206.99 77.416C206.99 59.4072 200.888 44.9858 188.857 32.9305C176.826 20.8793 162.136 14.7696 145.2 14.7696C139.887 14.7696 134.766 15.3462 129.978 16.4912C133.778 19.502 137.289 22.9492 140.42 26.7448L143.367 24.6108L148.295 49.1576L147.454 49.7662L125.51 37.5388L128.164 35.617C123.612 30.7165 118.595 26.6287 113.246 23.4617C109.091 26.0561 105.159 29.2751 101.552 33.0306C89.9247 45.1499 84.0272 60.1199 84.0272 77.5201C84.0272 94.9203 90.0929 109.858 102.056 121.905C105.856 125.733 109.971 129 114.287 131.622C119.136 128.74 123.732 125.108 127.956 120.828L125.362 118.871L147.386 106.964L148.215 107.592L142.958 132.159L140.023 129.945C137.273 133.052 134.246 135.91 131.019 138.449L131.023 138.441Z" fill="white"/>
</g>
<defs>
<clipPath id="clip0_1943_64942">
<rect width="221.839" height="154.993" fill="white" transform="translate(0.733643 0.0358887)"/>
</clipPath>
</defs>
</svg>
